<?xml version="1.0" standalone="no"?>
<!DOCTYPE svg PUBLIC "-//W3C//DTD SVG 20010904//EN"
 "http://www.w3.org/TR/2001/REC-SVG-20010904/DTD/svg10.dtd">
<svg version="1.0" xmlns="http://www.w3.org/2000/svg"
 width="1280.000000pt" height="1280.000000pt" viewBox="0 0 1280.000000 1280.000000"
 preserveAspectRatio="xMidYMid meet">
<g transform="translate(0.000000,1280.000000) scale(0.100000,-0.100000)"
fill="#00760C" stroke="none">
<path d="M3250 11701 c-404 -91 -702 -375 -807 -770 -23 -84 -26 -116 -26
-261 -1 -147 2 -176 26 -265 15 -57 50 -147 81 -210 140 -282 374 -470 694
-557 105 -29 362 -31 470 -5 225 54 410 160 556 318 303 327 364 816 152 1215
-139 261 -372 445 -664 525 -113 31 -364 36 -482 10z"/>
<path d="M1086 9051 c-3 -4 26 -161 64 -347 38 -186 164 -804 280 -1371 115
-568 305 -1498 421 -2065 116 -568 237 -1168 270 -1333 78 -388 117 -524 219
-755 82 -187 225 -418 363 -590 83 -102 293 -311 397 -394 410 -327 913 -529
1432 -576 59 -5 933 -9 2046 -10 l1942 0 0 525 0 525 -1987 3 -1988 3 -98 22
c-335 77 -593 217 -817 441 -242 244 -377 502 -449 858 -80 396 -1053 5058
-1057 5065 -7 11 -1031 10 -1038 -1z"/>
<path d="M3956 9045 c-498 -81 -889 -457 -991 -950 -22 -111 -29 -254 -17
-355 6 -47 72 -350 146 -675 74 -324 243 -1067 376 -1650 161 -707 254 -1092
277 -1155 195 -527 634 -904 1190 -1022 l108 -23 1930 -5 1930 -5 1004 -789
c552 -434 1011 -790 1020 -793 11 -2 148 128 401 382 304 304 383 388 375 400
-6 8 -694 548 -1530 1200 l-1520 1185 -1295 0 c-712 0 -1300 4 -1306 8 -16 9
-557 2173 -547 2183 4 4 85 -33 178 -82 681 -362 1240 -544 1814 -588 225 -18
415 -12 654 20 l87 12 0 560 0 560 -32 -7 c-96 -19 -302 -36 -443 -36 -444 0
-901 103 -1340 302 -289 130 -478 252 -900 579 -673 522 -730 565 -824 613
-232 120 -512 169 -745 131z"/>
</g>
</svg>
