<?xml version="1.0" standalone="no"?>
<!DOCTYPE svg PUBLIC "-//W3C//DTD SVG 20010904//EN"
 "http://www.w3.org/TR/2001/REC-SVG-20010904/DTD/svg10.dtd">
<svg version="1.0" xmlns="http://www.w3.org/2000/svg"
 width="200.000000pt" height="200.000000pt" viewBox="0 0 200.000000 200.000000"
 preserveAspectRatio="xMidYMid meet">

<g transform="translate(0.000000,200.000000) scale(0.100000,-0.100000)"
fill="#000000" stroke="none">
<path d="M640 1580 c-11 -11 -20 -29 -20 -40 0 -11 9 -29 20 -40 18 -18 33
-20 140 -20 l120 0 0 -40 0 -40 -71 0 -72 0 -102 -100 -101 -100 -77 0 c-111
0 -117 -8 -117 -150 l0 -110 -40 0 -40 0 0 190 c0 177 -1 191 -20 210 -11 11
-29 20 -40 20 -11 0 -29 -9 -40 -20 -19 -19 -20 -33 -20 -460 0 -427 1 -441
20 -460 25 -25 55 -25 80 0 19 19 20 33 20 210 l0 190 40 0 40 0 0 -110 c0
-150 0 -150 158 -150 l117 0 80 -80 80 -80 258 0 c142 0 266 4 275 9 9 5 57
55 107 110 49 56 93 101 97 101 5 0 8 -18 8 -40 0 -69 21 -80 150 -80 164 0
150 -41 150 430 0 471 14 430 -150 430 -129 0 -150 -11 -150 -80 l0 -40 -79 0
-78 0 -76 80 -75 80 -106 0 -106 0 0 40 0 40 120 0 c107 0 122 2 140 20 11 11
20 29 20 40 0 11 -9 29 -20 40 -19 19 -33 20 -320 20 -287 0 -301 -1 -320 -20z
m617 -380 l79 -80 142 0 c129 0 144 2 162 20 13 13 20 33 20 60 0 38 2 40 30
40 l30 0 0 -310 0 -310 -30 0 c-28 0 -30 2 -30 40 0 61 -25 80 -106 80 -36 0
-73 -4 -82 -9 -9 -5 -57 -55 -107 -110 l-90 -101 -214 0 -215 0 -82 80 -82 80
-101 0 -101 0 0 200 0 200 62 0 61 0 101 100 101 100 187 0 186 0 79 -80z"/>
</g>
</svg>
