<?xml version="1.0" standalone="no"?>
<!DOCTYPE svg PUBLIC "-//W3C//DTD SVG 20010904//EN"
 "http://www.w3.org/TR/2001/REC-SVG-20010904/DTD/svg10.dtd">
<svg version="1.0" xmlns="http://www.w3.org/2000/svg"
 width="200.000000pt" height="200.000000pt" viewBox="0 0 200.000000 200.000000"
 preserveAspectRatio="xMidYMid meet">

<g transform="translate(0.000000,200.000000) scale(0.100000,-0.100000)"
fill="#00760C" stroke="none">
<path d="M310 1811 c-71 -23 -131 -74 -166 -141 -28 -52 -26 -172 3 -226 28
-53 93 -109 147 -127 l41 -14 0 -302 0 -303 -49 -19 c-57 -21 -109 -67 -139
-124 -30 -56 -30 -174 0 -230 25 -47 74 -95 123 -121 49 -26 171 -26 220 0 49
26 98 74 123 121 31 57 30 173 0 231 -28 53 -93 109 -147 127 l-41 14 -3 131
-3 132 271 0 271 0 -3 -131 -3 -131 -49 -19 c-57 -21 -109 -67 -139 -124 -29
-53 -30 -173 -3 -225 26 -49 74 -98 121 -123 53 -29 173 -30 225 -3 49 26 98
74 123 121 31 57 30 173 0 231 -28 53 -93 109 -147 127 l-41 14 -3 131 -3 132
299 0 c236 0 302 3 311 13 6 8 12 76 13 172 l3 158 40 14 c55 18 109 64 143
121 23 40 27 58 27 122 0 107 -46 183 -140 233 -56 30 -174 30 -230 0 -47 -25
-95 -74 -121 -123 -28 -52 -26 -172 3 -226 28 -53 93 -109 147 -127 l41 -14 3
-131 3 -132 -271 0 -271 0 3 132 3 131 40 14 c55 18 109 64 143 121 23 40 27
58 27 122 0 85 -20 133 -77 186 -57 54 -95 69 -178 69 -83 0 -121 -15 -178
-69 -57 -53 -77 -101 -77 -186 0 -58 5 -84 22 -116 28 -53 93 -109 147 -127
l41 -14 3 -131 3 -132 -271 0 -271 0 3 132 3 131 40 14 c55 18 109 64 143 121
23 40 27 58 27 122 0 53 -6 85 -19 110 -26 49 -74 98 -121 122 -43 22 -144 33
-185 19z m150 -93 c132 -67 132 -249 0 -315 -24 -13 -60 -23 -80 -23 -20 0
-56 10 -80 23 -132 66 -132 248 0 315 24 12 60 22 80 22 20 0 56 -10 80 -22z
m620 0 c132 -67 132 -249 0 -315 -24 -13 -60 -23 -80 -23 -49 0 -120 38 -147
79 -61 92 -31 209 67 259 24 12 60 22 80 22 20 0 56 -10 80 -22z m620 0 c132
-67 132 -249 0 -315 -24 -13 -60 -23 -80 -23 -20 0 -56 10 -80 23 -132 66
-132 248 0 315 24 12 60 22 80 22 20 0 56 -10 80 -22z m-1240 -1120 c132 -67
132 -249 0 -316 -56 -28 -104 -28 -160 0 -132 67 -132 249 0 316 24 12 60 22
80 22 20 0 56 -10 80 -22z m620 0 c132 -67 132 -249 0 -316 -56 -28 -104 -28
-160 0 -132 67 -132 249 0 316 24 12 60 22 80 22 20 0 56 -10 80 -22z"/>
<path d="M1550 691 c-46 -15 -85 -39 -116 -73 -54 -57 -69 -95 -69 -178 0 -83
15 -121 69 -178 53 -57 101 -77 186 -77 85 0 133 20 186 77 54 57 69 95 69
178 0 54 -6 85 -19 110 -26 49 -74 98 -121 122 -43 22 -144 33 -185 19z m150
-93 c132 -67 132 -249 0 -316 -56 -28 -104 -28 -160 0 -132 67 -132 249 0 316
24 12 60 22 80 22 20 0 56 -10 80 -22z"/>
</g>
</svg>
