<?xml version="1.0" standalone="no"?>
<!DOCTYPE svg PUBLIC "-//W3C//DTD SVG 20010904//EN"
 "http://www.w3.org/TR/2001/REC-SVG-20010904/DTD/svg10.dtd">
<svg version="1.0" xmlns="http://www.w3.org/2000/svg"
 width="225.000000pt" height="225.000000pt" viewBox="0 0 225.000000 225.000000"
 preserveAspectRatio="xMidYMid meet">

<g transform="translate(0.000000,225.000000) scale(0.100000,-0.100000)"
fill="#00760C" stroke="none">
<path d="M626 1830 c-41 -13 -84 -58 -96 -99 -6 -22 -10 -255 -10 -588 l0
-552 -25 -26 c-23 -22 -26 -32 -23 -88 l3 -62 435 0 435 0 3 63 c3 59 1 64
-28 90 l-30 26 0 353 c0 194 4 353 9 353 13 0 60 -39 71 -60 32 -59 41 -139
40 -355 0 -209 1 -223 22 -265 28 -54 69 -80 140 -86 74 -7 115 16 148 81 22
44 25 62 23 145 0 52 -8 141 -17 197 -9 57 -16 146 -16 198 0 90 2 97 30 137
56 77 37 168 -54 261 -74 77 -212 153 -287 159 -30 3 -34 0 -34 -21 0 -20 10
-27 75 -50 42 -15 90 -37 107 -49 l32 -23 -19 -32 c-39 -63 -20 -145 51 -229
l39 -47 0 -93 c0 -51 7 -138 15 -193 34 -223 30 -320 -16 -366 -23 -23 -87
-26 -128 -4 -50 25 -56 57 -56 315 -1 197 -4 244 -18 288 -21 63 -75 127 -123
144 l-34 12 0 186 c0 213 -7 236 -83 270 -38 18 -66 20 -297 19 -140 0 -268
-5 -284 -9z m482 -182 c17 -17 17 -259 0 -276 -17 -17 -379 -17 -396 0 -13 13
-18 269 -5 281 12 13 388 8 401 -5z"/>
</g>
</svg>
