<svg version="1.1" id="Layer_1" xmlns="http://www.w3.org/2000/svg" xmlns:xlink="http://www.w3.org/1999/xlink" x="0px" y="0px"
	 width="100%" viewBox="0 0 318 159" enable-background="new 0 0 318 159" xml:space="preserve">
<path fill="#FEFEFE" opacity="1.000000" stroke="none" 
	d="
M1.363689,73.061386 
	C1.000000,50.010738 1.039874,27.021305 0.941074,4.032468 
	C0.930684,1.614908 1.383846,0.929429 3.965037,0.931426 
	C107.916420,1.011815 211.867874,1.016440 315.819214,0.915268 
	C318.735046,0.912430 319.072174,1.686307 319.067444,4.316402 
	C318.976349,55.125843 318.971985,105.935547 319.076477,156.744934 
	C319.082153,159.503326 318.542786,160.079361 315.757904,160.076904 
	C211.973114,159.985703 108.188225,159.978073 4.403508,160.101517 
	C1.153185,160.105377 0.924418,159.124741 0.937948,156.406357 
	C1.048223,134.250458 1.000000,112.093765 1.000000,89.468658 
	C4.436537,89.813591 3.984770,92.990494 4.659795,95.327377 
	C11.369737,118.556763 26.790361,132.577652 50.278072,137.031418 
	C79.384628,142.550659 108.266991,122.975151 114.816643,94.097755 
	C115.930634,89.186180 115.415108,88.474869 110.472321,88.358376 
	C106.810318,88.272064 103.137672,88.518532 99.484818,88.247711 
	C94.908897,87.908470 93.623848,86.158852 93.680595,80.780762 
	C93.734367,75.683105 94.952957,74.057251 99.408676,73.758492 
	C104.060402,73.446579 108.731392,73.730217 113.728195,73.581169 
	C114.476662,73.415482 114.854744,73.231331 115.316185,72.663788 
	C113.025841,53.868279 102.699089,40.823826 87.087578,31.479874 
	C81.457558,28.110138 75.216080,26.442270 68.433014,25.264153 
	C63.208794,23.792173 58.271259,24.373280 52.984039,24.676704 
	C51.875858,24.985092 51.119179,25.084513 49.994350,25.239641 
	C48.895317,25.368923 48.166336,25.452747 47.123268,25.822004 
	C24.138710,31.895176 10.105587,46.404411 4.058734,68.874832 
	C3.632647,70.458199 3.316758,72.154182 1.363689,73.061386 
z"/>
<path fill="#61BB48" opacity="1.000000" stroke="none" 
	d="
M116.035019,75.040825 
	C110.242218,75.385956 104.596939,75.595314 98.956451,75.505318 
	C93.229286,75.413948 95.658997,79.638222 95.253632,82.265556 
	C94.833817,84.986603 95.171043,87.192848 98.985054,86.985626 
	C103.629112,86.733299 108.322159,87.218307 112.947227,86.828812 
	C117.207596,86.470024 117.638298,88.335480 116.874054,91.729530 
	C111.729332,114.577682 98.274307,130.234924 75.775932,136.855438 
	C42.956486,146.513077 10.373945,126.631538 2.801208,93.089630 
	C2.510162,91.800507 2.078876,90.543045 1.356469,89.135414 
	C1.000000,88.555557 1.000000,88.111107 1.000000,87.333328 
	C2.734047,83.585098 2.111665,80.061768 1.240708,76.269035 
	C1.000000,75.250000 1.000000,74.500000 1.000000,73.375000 
	C2.959178,71.972397 2.521712,69.916977 2.962628,68.275154 
	C9.071392,45.528385 23.264523,30.875849 46.601387,24.963074 
	C47.543961,24.991037 48.071644,24.900524 48.782448,24.464628 
	C49.753838,24.189190 50.494480,24.057772 51.613270,23.952095 
	C57.393970,24.206612 62.822079,23.574099 68.594269,24.283360 
	C94.603088,28.483444 113.829109,48.048809 117.133041,73.551590 
	C116.781189,74.216751 116.473686,74.484695 116.035019,75.040825 
z"/>
<path fill="#55B739" opacity="1.000000" stroke="none" 
	d="
M1.000000,76.458069 
	C4.700400,79.359192 3.259453,83.090462 1.391670,86.912140 
	C1.000000,83.638710 1.000000,80.277428 1.000000,76.458069 
z"/>
<path fill="#131313" opacity="1.000000" stroke="none" 
	d="
M222.199997,74.782104 
	C223.966095,81.059273 225.616898,86.960449 227.502472,93.700935 
	C230.286636,88.117607 230.953720,82.589775 232.898682,77.524689 
	C233.531113,75.877724 233.008347,73.386543 236.030869,73.200523 
	C239.484039,72.987999 239.006927,75.756920 239.583969,77.576530 
	C241.183670,82.620712 242.583649,87.728241 244.326569,93.718063 
	C247.106232,87.771698 247.775909,82.091660 249.457977,76.745392 
	C250.077988,74.774727 250.346756,72.349014 253.071564,73.385094 
	C255.484238,74.302483 253.528748,76.241272 253.133484,77.586128 
	C251.310776,83.787827 249.251312,89.919991 247.432739,96.122826 
	C246.907883,97.913025 246.395554,98.961288 244.192291,98.973534 
	C241.982285,98.985832 241.894272,97.552689 241.465927,96.183479 
	C239.818649,90.917946 238.186523,85.647675 235.556335,80.389313 
	C233.996231,85.534309 232.467194,90.689064 230.856674,95.818245 
	C230.387665,97.311897 230.237762,99.004707 227.796082,98.965736 
	C225.463074,98.928505 225.183426,97.515175 224.680496,95.872513 
	C222.691589,89.376320 220.618713,82.905891 218.601212,76.418365 
	C218.283218,75.395767 217.179993,74.035973 218.712311,73.410789 
	C219.718323,73.000343 221.405807,72.610603 222.199997,74.782104 
z"/>
<path fill="#151515" opacity="1.000000" stroke="none" 
	d="
M141.237976,98.160995 
	C133.819778,93.315208 131.706589,85.268791 135.758652,78.606956 
	C139.076080,73.152908 146.496735,71.205688 152.446121,74.212952 
	C154.431564,75.216545 156.008041,76.656090 157.118683,78.572525 
	C160.780457,84.890991 159.195007,87.758957 152.064346,87.758598 
	C147.580841,87.758369 143.097321,87.758560 138.340317,87.758560 
	C138.688919,91.716217 140.488480,94.188240 143.996948,95.253143 
	C147.505142,96.317955 150.750748,95.703804 152.799683,92.488968 
	C154.155167,90.362152 155.849503,91.072914 157.640915,90.878441 
	C155.879440,98.057526 150.255341,100.577469 141.237976,98.160995 
z"/>
<path fill="#151515" opacity="1.000000" stroke="none" 
	d="
M212.758881,94.463486 
	C207.147858,99.986572 199.649536,100.695732 194.581482,96.479637 
	C189.702576,92.420898 188.575684,83.718788 192.217209,78.222267 
	C195.645630,73.047394 202.926529,71.254173 208.619492,74.182289 
	C210.433182,75.115143 211.938187,76.401932 213.021759,78.136665 
	C214.667221,80.770897 215.848251,83.890160 214.651703,86.641327 
	C213.573120,89.121315 210.461548,87.555481 208.282104,87.694618 
	C204.631866,87.927666 200.952530,87.858421 197.292038,87.729401 
	C194.273956,87.623016 194.405197,89.130386 195.294525,91.144966 
	C197.619583,96.411865 204.607376,97.259804 208.916397,92.557724 
	C210.424240,90.912354 211.989075,90.278191 213.620255,91.243607 
	C214.997818,92.058907 213.376785,93.183075 212.758881,94.463486 
z"/>
<path fill="#0F0F0F" opacity="1.000000" stroke="none" 
	d="
M268.204651,99.107315 
	C261.402588,98.184158 258.393311,94.060371 257.358765,88.107773 
	C256.424255,82.730522 258.721130,77.281334 262.939453,74.680283 
	C267.664490,71.766800 272.254761,72.299820 278.460236,76.731537 
	C279.140350,75.325523 278.490356,72.546585 281.494659,73.216553 
	C284.243011,73.829445 283.003265,75.828102 283.034668,77.167175 
	C283.178650,83.305359 283.150513,89.449646 283.053040,95.589661 
	C283.033661,96.811401 283.974915,98.634865 281.405792,98.924591 
	C278.514893,99.250603 278.947601,97.166756 278.596313,95.147118 
	C275.547455,97.566261 272.544434,99.636253 268.204651,99.107315 
z"/>
<path fill="#0E0E0E" opacity="1.000000" stroke="none" 
	d="
M164.102844,72.114136 
	C166.738998,66.570320 171.272507,65.509125 176.396378,66.123024 
	C180.876541,66.659790 184.104553,68.895340 184.994934,73.764641 
	C182.630066,74.416832 181.058289,74.261665 179.372650,72.038132 
	C176.925797,68.810478 173.223419,68.873940 169.950424,70.872520 
	C166.817596,72.785507 167.239761,77.229164 170.775421,78.961212 
	C173.580429,80.335335 176.748138,80.948105 179.689377,82.070381 
	C183.252975,83.430145 185.406479,85.796616 185.320190,89.956680 
	C185.236664,93.984421 183.231613,96.528656 179.790909,98.091927 
	C174.198334,100.632912 166.604691,98.483139 164.417236,93.786430 
	C163.895737,92.666710 162.900101,91.009514 164.299362,90.328369 
	C165.510941,89.738586 167.304962,89.413231 168.353287,91.700790 
	C170.322906,95.998695 173.993271,96.474831 178.039734,94.870026 
	C180.061249,94.068298 181.080444,92.439781 181.082840,90.164764 
	C181.085052,88.086334 180.209076,86.572815 178.349289,85.819099 
	C176.048981,84.886871 173.675095,84.123306 171.302444,83.385078 
	C164.886581,81.388840 163.500031,79.351685 164.102844,72.114136 
z"/>
<path fill="#68BE4F" opacity="1.000000" stroke="none" 
	d="
M68.581284,24.003963 
	C63.560253,25.833057 58.064884,24.989084 52.286427,24.273434 
	C57.381210,22.673998 62.778957,23.027592 68.581284,24.003963 
z"/>
<path fill="#68BE4F" opacity="1.000000" stroke="none" 
	d="
M48.739525,24.306082 
	C48.793930,25.241800 48.564796,26.147572 47.141762,25.199898 
	C47.483082,24.748955 47.974468,24.520254 48.739525,24.306082 
z"/>
<path fill="#55B739" opacity="1.000000" stroke="none" 
	d="
M116.249573,75.273521 
	C116.107430,74.958298 116.329468,74.608658 116.828018,74.112930 
	C116.940926,74.390930 116.777336,74.815018 116.249573,75.273521 
z"/>
<path fill="#FAFDF9" opacity="1.000000" stroke="none" 
	d="
M34.714630,57.745033 
	C39.338600,52.898495 44.606327,49.992626 50.834751,48.665211 
	C63.897884,45.881165 73.916862,51.075886 78.916580,63.383801 
	C81.004250,68.523064 80.307556,69.884613 74.844276,70.766762 
	C64.014542,72.515427 53.193340,74.350876 42.318893,75.769264 
	C38.788269,76.229782 37.774490,77.588326 38.155041,80.875366 
	C39.132626,89.319244 42.482346,96.612167 48.903561,102.191147 
	C58.506741,110.534752 73.668526,107.603577 80.356247,96.375282 
	C81.280441,94.823601 81.665733,91.870430 84.407722,93.121017 
	C87.517609,94.539391 85.256790,96.971321 84.549530,98.672623 
	C79.725555,110.276688 70.938965,116.479057 58.355026,116.763725 
	C46.003628,117.043129 36.755798,111.528267 31.556833,100.331718 
	C24.822004,85.827530 24.080965,71.465942 34.714630,57.745033 
z"/>
<path fill="#F5F5F5" opacity="1.000000" stroke="none" 
	d="
M151.143280,77.852699 
	C153.189468,79.496719 154.963455,81.368607 153.949936,83.489799 
	C153.128967,85.207985 150.651489,84.122162 148.928299,84.191628 
	C145.469223,84.331070 142.000565,84.233063 138.480835,84.233063 
	C139.966751,77.058723 143.687515,75.150681 151.143280,77.852699 
z"/>
<path fill="#F3F3F3" opacity="1.000000" stroke="none" 
	d="
M209.074005,79.438965 
	C211.446609,83.039307 210.879868,84.574715 206.692947,84.280159 
	C203.717133,84.070808 200.707947,84.113388 197.725845,84.272163 
	C194.078598,84.466347 194.295135,82.717613 195.584213,80.369980 
	C198.087845,75.810478 203.624100,75.291275 209.074005,79.438965 
z"/>
<path fill="#F8F8F8" opacity="1.000000" stroke="none" 
	d="
M261.848663,83.472092 
	C264.232269,77.683128 267.416168,75.661324 272.209503,76.841171 
	C276.717651,77.950829 278.622711,81.274490 278.830780,85.657700 
	C279.063660,90.563858 276.345367,94.319618 271.993378,95.367027 
	C265.692627,96.883446 261.424561,92.090240 261.848663,83.472092 
z"/>
<path fill="#61BC49" opacity="1.000000" stroke="none" 
	d="
M56.672367,54.166618 
	C59.727703,54.386978 61.346508,56.306950 62.777126,58.348618 
	C67.114098,64.537987 66.029556,67.216377 58.759201,68.395950 
	C53.034847,69.324684 47.292233,70.143608 41.575947,71.118164 
	C38.872475,71.579063 37.950878,70.978394 38.648865,68.024025 
	C39.785877,63.211361 41.382427,58.806274 46.094433,55.905670 
	C46.855171,55.852089 47.247478,55.716911 47.773582,55.153175 
	C48.454803,54.613514 48.945499,54.337799 49.725231,54.066315 
	C52.116943,54.379238 54.258915,53.653229 56.672367,54.166618 
z"/>
<path fill="#69BF51" opacity="1.000000" stroke="none" 
	d="
M56.669991,53.864475 
	C54.978310,55.675373 52.757622,55.039345 50.283966,54.331444 
	C52.078583,53.158375 54.180309,52.897125 56.669991,53.864475 
z"/>
<path fill="#69BF51" opacity="1.000000" stroke="none" 
	d="
M47.646263,54.931290 
	C47.660198,55.176773 47.356297,55.464321 46.729279,55.787292 
	C46.713581,55.539597 47.021004,55.256474 47.646263,54.931290 
z"/>
</svg>