<?xml version="1.0" encoding="UTF-8"?>
<!DOCTYPE svg PUBLIC "-//W3C//DTD SVG 1.1//EN" "http://www.w3.org/Graphics/SVG/1.1/DTD/svg11.dtd">
<svg xmlns="http://www.w3.org/2000/svg" version="1.1" width="1572px" height="652px" style="shape-rendering:geometricPrecision; text-rendering:geometricPrecision; image-rendering:optimizeQuality; fill-rule:evenodd; clip-rule:evenodd" xmlns:xlink="http://www.w3.org/1999/xlink">
<g><path style="opacity:0.992" fill="#5b2d91" d="M 250.5,113.5 C 403.5,113.333 556.5,113.5 709.5,114C 722.393,118.068 729.06,126.901 729.5,140.5C 719.89,231.488 710.39,322.488 701,413.5C 699.729,428.946 697.729,444.28 695,459.5C 689.659,474.501 680.826,487.001 668.5,497C 615.833,528 563.167,559 510.5,590C 491.446,599.975 472.112,600.641 452.5,592C 397.335,559.585 342.335,526.919 287.5,494C 275.632,482.77 267.466,469.27 263,453.5C 252.135,351.188 241.469,248.855 231,146.5C 228.323,129.829 234.823,118.829 250.5,113.5 Z M 391.5,177.5 C 407.89,176.101 418.723,183.101 424,198.5C 424.167,234.171 424.667,269.838 425.5,305.5C 466.986,264.514 508.32,223.347 549.5,182C 566.569,173.474 580.069,177.308 590,193.5C 594.138,203.929 592.804,213.595 586,222.5C 561.653,246.68 537.486,271.014 513.5,295.5C 543.581,339.327 573.414,383.327 603,427.5C 607.575,445.184 601.408,457.351 584.5,464C 573.087,466.418 563.587,463.251 556,454.5C 528.667,414.5 501.333,374.5 474,334.5C 457.667,350.833 441.333,367.167 425,383.5C 424.667,403.5 424.333,423.5 424,443.5C 420.183,456.812 411.35,464.146 397.5,465.5C 381.543,463.376 372.376,454.376 370,438.5C 369.333,360.167 369.333,281.833 370,203.5C 371.586,190.091 378.753,181.424 391.5,177.5 Z"/></g>
<g><path style="opacity:0.954" fill="#5b2d91" d="M 748.5,175.5 C 957.834,175.333 1167.17,175.5 1376.5,176C 1397.45,180.28 1410.61,192.78 1416,213.5C 1417.64,282.812 1417.97,352.145 1417,421.5C 1414.19,447.313 1400.02,462.479 1374.5,467C 1156.17,467.5 937.834,467.667 719.5,467.5C 719.944,460.173 720.277,452.84 720.5,445.5C 938.167,445.667 1155.83,445.5 1373.5,445C 1385.1,441.732 1392.27,434.232 1395,422.5C 1395.67,355.167 1395.67,287.833 1395,220.5C 1392.86,210.361 1387.03,203.194 1377.5,199C 1167.56,197.503 957.555,197.003 747.5,197.5C 747.833,190.167 748.167,182.833 748.5,175.5 Z"/></g>
<g><path style="opacity:0.987" fill="#f9a619" d="M 200.5,194.5 C 202.833,194.5 205.167,194.5 207.5,194.5C 212.988,247.061 218.655,299.561 224.5,352C 207.704,355.071 190.704,357.238 173.5,358.5C 167.116,306.262 160.45,254.095 153.5,202C 169.178,199.25 184.845,196.75 200.5,194.5 Z"/></g>
<g><path style="opacity:0.956" fill="#5b2d91" d="M 788.5,246.5 C 797.173,246.334 805.84,246.5 814.5,247C 817.034,247.516 819.2,248.683 821,250.5C 822.473,276.436 822.973,302.436 822.5,328.5C 828.343,328.722 834.01,327.889 839.5,326C 848.885,314.283 857.885,302.283 866.5,290C 874.833,289.333 883.167,289.333 891.5,290C 879.864,306.103 867.864,321.936 855.5,337.5C 857.524,339.69 859.357,342.023 861,344.5C 866.333,354.5 871.667,364.5 877,374.5C 878.214,376.049 879.714,377.215 881.5,378C 885.152,378.499 888.818,378.665 892.5,378.5C 892.5,384.5 892.5,390.5 892.5,396.5C 883.418,396.914 874.418,396.414 865.5,395C 862.238,392.408 859.738,389.241 858,385.5C 852,374.167 846,362.833 840,351.5C 838.786,349.951 837.286,348.785 835.5,348C 831.179,347.501 826.846,347.334 822.5,347.5C 822.5,363.833 822.5,380.167 822.5,396.5C 815.167,396.5 807.833,396.5 800.5,396.5C 800.563,353.494 800.729,310.494 801,267.5C 800.097,266.299 798.931,265.465 797.5,265C 794.518,264.502 791.518,264.335 788.5,264.5C 788.5,258.5 788.5,252.5 788.5,246.5 Z"/></g>
<g><path style="opacity:0.959" fill="#5b2d91" d="M 899.5,247.5 C 908.506,247.334 917.506,247.5 926.5,248C 930,248.833 932.167,251 933,254.5C 933.333,272.5 933.667,290.5 934,308.5C 942.585,294.114 955.418,286.781 972.5,286.5C 991.932,286.452 1003.77,295.785 1008,314.5C 1009.03,335.487 1009.86,356.487 1010.5,377.5C 1014.43,378.433 1018.43,378.766 1022.5,378.5C 1022.5,384.5 1022.5,390.5 1022.5,396.5C 1013.16,396.666 1003.83,396.5 994.5,396C 992.376,394.878 990.543,393.378 989,391.5C 987.979,367.522 986.979,343.522 986,319.5C 983.131,310.98 977.131,306.647 968,306.5C 949.373,308.792 938.04,319.125 934,337.5C 933.5,357.164 933.333,376.831 933.5,396.5C 926.167,396.5 918.833,396.5 911.5,396.5C 911.922,353.832 912.088,311.165 912,268.5C 911.626,267.584 911.126,266.75 910.5,266C 906.848,265.501 903.182,265.335 899.5,265.5C 899.5,259.5 899.5,253.5 899.5,247.5 Z"/></g>
<g><path style="opacity:0.977" fill="#5b2d91" d="M 1145.5,247.5 C 1153.51,247.334 1161.51,247.5 1169.5,248C 1173.97,248.313 1177.13,250.479 1179,254.5C 1179.33,294.833 1179.67,335.167 1180,375.5C 1180.5,376.667 1181.33,377.5 1182.5,378C 1185.82,378.498 1189.15,378.665 1192.5,378.5C 1192.5,384.5 1192.5,390.5 1192.5,396.5C 1183.49,396.666 1174.49,396.5 1165.5,396C 1163.38,394.878 1161.54,393.378 1160,391.5C 1158.68,350.226 1158.02,308.893 1158,267.5C 1153.93,266.536 1149.77,266.203 1145.5,266.5C 1145.5,260.167 1145.5,253.833 1145.5,247.5 Z"/></g>
<g><path style="opacity:0.935" fill="#5b2d91" d="M 1293.5,247.5 C 1299.5,247.5 1305.5,247.5 1311.5,247.5C 1311.67,254.508 1311.5,261.508 1311,268.5C 1305.58,269.639 1300.08,269.806 1294.5,269C 1294,268.5 1293.5,268 1293,267.5C 1292.21,260.753 1292.37,254.086 1293.5,247.5 Z"/></g>
<g><path style="opacity:0.957" fill="#5b2d91" d="M 1215.5,259.5 C 1222.5,259.5 1229.5,259.5 1236.5,259.5C 1236.5,269.5 1236.5,279.5 1236.5,289.5C 1244.83,289.5 1253.17,289.5 1261.5,289.5C 1261.5,295.167 1261.5,300.833 1261.5,306.5C 1253.17,306.5 1244.83,306.5 1236.5,306.5C 1236.33,324.503 1236.5,342.503 1237,360.5C 1240.36,374.28 1249.19,380.28 1263.5,378.5C 1263.5,384.5 1263.5,390.5 1263.5,396.5C 1250.34,398.171 1238.34,395.338 1227.5,388C 1220.61,381.715 1216.77,373.882 1216,364.5C 1215.5,345.17 1215.33,325.836 1215.5,306.5C 1210.83,306.5 1206.17,306.5 1201.5,306.5C 1201.5,300.833 1201.5,295.167 1201.5,289.5C 1206.17,289.5 1210.83,289.5 1215.5,289.5C 1215.5,279.5 1215.5,269.5 1215.5,259.5 Z"/></g>
<g><path style="opacity:0.948" fill="#5b2d91" d="M 1075.5,286.5 C 1087.39,285.901 1098.72,288.068 1109.5,293C 1119.54,300.581 1124.71,310.748 1125,323.5C 1125.33,341.167 1125.67,358.833 1126,376.5C 1126.5,377 1127,377.5 1127.5,378C 1131.15,378.499 1134.82,378.665 1138.5,378.5C 1138.5,384.5 1138.5,390.5 1138.5,396.5C 1129.83,396.666 1121.16,396.5 1112.5,396C 1110.41,395.208 1108.58,394.041 1107,392.5C 1105.53,388.971 1104.53,385.305 1104,381.5C 1091.47,398.23 1075.3,403.063 1055.5,396C 1039.96,388.76 1033.46,376.594 1036,359.5C 1039.71,348.126 1047.21,340.292 1058.5,336C 1073.46,331.27 1088.79,329.104 1104.5,329.5C 1105.57,312.927 1097.91,304.26 1081.5,303.5C 1075.19,303.46 1069.69,305.46 1065,309.5C 1064.5,312.482 1064.34,315.482 1064.5,318.5C 1057.5,318.5 1050.5,318.5 1043.5,318.5C 1042.77,311.144 1043.93,304.144 1047,297.5C 1049.56,294.469 1052.73,292.302 1056.5,291C 1062.83,288.905 1069.16,287.405 1075.5,286.5 Z M 1088.5,345.5 C 1093.83,345.5 1099.17,345.5 1104.5,345.5C 1105.31,361.058 1098.98,372.558 1085.5,380C 1076.41,383.069 1068.25,381.569 1061,375.5C 1055.28,362.995 1058.78,354.162 1071.5,349C 1077.23,347.432 1082.9,346.265 1088.5,345.5 Z"/></g>
<g><path style="opacity:0.98" fill="#5b2d91" d="M 1279.5,289.5 C 1288.17,289.334 1296.84,289.5 1305.5,290C 1308.2,290.69 1310.36,292.19 1312,294.5C 1313.31,321.438 1313.97,348.438 1314,375.5C 1314.37,376.416 1314.87,377.25 1315.5,378C 1319.15,378.499 1322.82,378.665 1326.5,378.5C 1326.5,384.5 1326.5,390.5 1326.5,396.5C 1317.49,396.666 1308.49,396.5 1299.5,396C 1296,395.167 1293.83,393 1293,389.5C 1292.67,363.167 1292.33,336.833 1292,310.5C 1291.5,309.333 1290.67,308.5 1289.5,308C 1286.18,307.502 1282.85,307.335 1279.5,307.5C 1279.5,301.5 1279.5,295.5 1279.5,289.5 Z"/></g>
</svg>
