<?xml version="1.0" standalone="no"?>
<!DOCTYPE svg PUBLIC "-//W3C//DTD SVG 20010904//EN"
 "http://www.w3.org/TR/2001/REC-SVG-20010904/DTD/svg10.dtd">
<svg version="1.0" xmlns="http://www.w3.org/2000/svg"
 width="512.000000pt" height="512.000000pt" viewBox="0 0 512.000000 512.000000"
 preserveAspectRatio="xMidYMid meet">

<g transform="translate(0.000000,512.000000) scale(0.100000,-0.100000)"
fill="#000000" stroke="none">
<path d="M3210 2974 c-619 -431 -1140 -801 -1157 -822 -83 -95 -118 -207 -111
-350 4 -82 8 -99 46 -175 121 -245 405 -343 647 -223 38 19 87 52 107 73 35
36 1602 2273 1596 2278 -2 1 -509 -350 -1128 -781z m-684 -898 c62 -29 110
-84 129 -150 19 -63 19 -80 -1 -147 -22 -74 -89 -141 -163 -163 -67 -20 -84
-20 -147 -1 -168 50 -229 257 -119 401 61 80 199 108 301 60z"/>
<path d="M2275 3735 c-938 -119 -1710 -800 -1941 -1711 -39 -156 -61 -297 -70
-456 l-7 -118 286 0 287 0 4 23 c3 12 7 67 10 122 3 55 14 145 26 199 130 627
599 1135 1212 1311 184 54 310 68 533 62 210 -6 313 -23 484 -81 l98 -33 259
182 c142 101 259 189 259 196 0 19 -222 129 -368 182 -132 49 -277 87 -427
113 -132 22 -499 28 -645 9z"/>
<path d="M3891 2954 l-163 -235 80 -83 c270 -282 450 -680 468 -1039 3 -56 7
-112 10 -124 l4 -23 287 0 286 0 -7 112 c-35 586 -264 1102 -671 1514 -62 63
-117 114 -121 114 -5 0 -83 -106 -173 -236z"/>
</g>
</svg>
