<?xml version="1.0" standalone="no"?>
<!DOCTYPE svg PUBLIC "-//W3C//DTD SVG 20010904//EN"
 "http://www.w3.org/TR/2001/REC-SVG-20010904/DTD/svg10.dtd">
<svg version="1.0" xmlns="http://www.w3.org/2000/svg"
 width="225.000000pt" height="225.000000pt" viewBox="0 0 225.000000 225.000000"
 preserveAspectRatio="xMidYMid meet">

<g transform="translate(0.000000,225.000000) scale(0.100000,-0.100000)"
fill="#00760C" stroke="none">
<path d="M452 2050 c-79 -22 -128 -67 -183 -165 -49 -89 -74 -195 -65 -281 11
-103 104 -361 175 -483 142 -242 461 -550 691 -666 67 -34 241 -100 330 -126
135 -39 276 -19 401 57 105 63 145 128 164 264 8 57 -2 67 -143 145 -56 31
-139 78 -184 106 -45 27 -86 49 -91 49 -22 0 -77 -43 -113 -88 -67 -84 -128
-142 -149 -142 -26 0 -179 87 -266 151 -140 103 -305 303 -386 466 -24 50 -24
55 -10 77 9 13 44 48 79 78 153 130 161 149 105 233 -19 28 -65 106 -102 175
-37 69 -77 135 -88 148 -25 27 -75 28 -165 2z"/>
</g>
</svg>
